<svg xmlns="http://www.w3.org/2000/svg" viewBox="0 0 512 512" role="img" aria-labelledby="title desc">
  <title id="title">Writing</title>
  <desc id="desc">A white conversation card and pen on a violet rounded square.</desc>
  <defs>
    <linearGradient id="background" x1="72" y1="48" x2="440" y2="464" gradientUnits="userSpaceOnUse">
      <stop offset="0" stop-color="#8B7CFF"/>
      <stop offset="1" stop-color="#5542D6"/>
    </linearGradient>
    <filter id="shadow" x="-20%" y="-20%" width="140%" height="150%">
      <feDropShadow dx="0" dy="18" stdDeviation="18" flood-color="#302284" flood-opacity="0.32"/>
    </filter>
  </defs>
  <rect x="20" y="20" width="472" height="472" rx="112" fill="url(#background)"/>
  <g filter="url(#shadow)">
    <path d="M118 128h276c22 0 40 18 40 40v150c0 22-18 40-40 40H247l-79 62c-11 9-27 1-27-13v-49h-23c-22 0-40-18-40-40V168c0-22 18-40 40-40Z" fill="#FFFFFF"/>
    <path d="M155 205h202" stroke="#6D5CE7" stroke-width="24" stroke-linecap="round" opacity="0.92"/>
    <path d="M155 270h131" stroke="#6D5CE7" stroke-width="24" stroke-linecap="round" opacity="0.72"/>
    <path d="m309 321 78-78 31 31-78 78-44 13 13-44Z" fill="#FFD76A" stroke="#5A48DB" stroke-width="12" stroke-linejoin="round"/>
    <path d="m387 243 16-16c8-8 20-8 28 0l3 3c8 8 8 20 0 28l-16 16-31-31Z" fill="#FFFFFF" stroke="#5A48DB" stroke-width="12" stroke-linejoin="round"/>
  </g>
</svg>
